<svg width="670" height="371" viewBox="0 0 670 371" fill="none" xmlns="http://www.w3.org/2000/svg">
<path d="M8.256 222V154.8H20.256L40.608 218.352H41.76L62.112 154.8H74.112V222H68.16V158.448H67.008L46.656 222H35.712L15.36 158.448H14.208V222H8.256ZM90.6623 222V154.8H131.27V160.368H96.8063V185.52H128.582V191.088H96.8063V216.432H131.654V222H90.6623ZM141.483 222V216.432H151.083V160.368H141.483V154.8H167.019C175.787 154.8 182.603 157.04 187.467 161.52C192.395 165.936 194.859 172.848 194.859 182.256V194.64C194.859 204.048 192.395 210.96 187.467 215.376C182.603 219.792 175.787 222 167.019 222H141.483ZM157.227 216.432H167.019C174.059 216.432 179.435 214.736 183.147 211.344C186.859 207.952 188.715 202.48 188.715 194.928V181.968C188.715 174.352 186.859 168.88 183.147 165.552C179.435 162.16 174.059 160.464 167.019 160.464H157.227V216.432ZM208.694 222V154.8H214.838V222H208.694ZM225.813 222L247.797 154.8H258.741L280.725 222H274.293L268.533 204.144H238.005L232.245 222H225.813ZM239.733 198.576H266.805L253.845 158.448H252.693L239.733 198.576ZM338.908 223.344C331.036 223.344 324.732 221.04 319.996 216.432C315.324 211.76 312.988 204.944 312.988 195.984V180.816C312.988 171.856 315.324 165.072 319.996 160.464C324.732 155.792 331.036 153.456 338.908 153.456C346.716 153.456 352.668 155.664 356.764 160.08C360.924 164.432 363.004 170.384 363.004 177.936V178.416H356.86V177.744C356.86 172.24 355.388 167.76 352.444 164.304C349.564 160.784 345.052 159.024 338.908 159.024C332.7 159.024 327.836 160.912 324.316 164.688C320.86 168.464 319.132 173.776 319.132 180.624V196.176C319.132 203.024 320.86 208.336 324.316 212.112C327.836 215.888 332.7 217.776 338.908 217.776C345.052 217.776 349.564 216.048 352.444 212.592C355.388 209.072 356.86 204.56 356.86 199.056V197.616H363.004V198.864C363.004 206.416 360.924 212.4 356.764 216.816C352.668 221.168 346.716 223.344 338.908 223.344ZM370.469 222L392.453 154.8H403.397L425.381 222H418.949L413.189 204.144H382.661L376.901 222H370.469ZM384.389 198.576H411.461L398.501 158.448H397.349L384.389 198.576ZM436.319 222V154.8H461.183C465.151 154.8 468.703 155.568 471.839 157.104C475.039 158.576 477.567 160.72 479.423 163.536C481.279 166.352 482.207 169.776 482.207 173.808V174.96C482.207 178.992 481.247 182.448 479.327 185.328C477.471 188.144 474.943 190.288 471.743 191.76C468.607 193.232 465.087 193.968 461.183 193.968H442.463V222H436.319ZM442.463 188.4H460.511C465.311 188.4 469.087 187.216 471.839 184.848C474.655 182.48 476.062 179.152 476.062 174.864V173.904C476.062 169.552 474.687 166.224 471.935 163.92C469.247 161.552 465.439 160.368 460.511 160.368H442.463V188.4ZM493.881 222V154.8H500.025V222H493.881ZM533.465 222V160.368H511.001V154.8H562.073V160.368H539.609V222H533.465ZM559.751 222L581.734 154.8H592.679L614.663 222H608.231L602.471 204.144H571.943L566.183 222H559.751ZM573.671 198.576H600.743L587.783 158.448H586.631L573.671 198.576ZM625.6 222V154.8H631.744V216.432H667.072V222H625.6Z" fill="#B3B3B3"/>
<path d="M399.78 208.834C381.873 253.328 359.043 290.899 336.64 315.678C325.436 328.07 314.376 337.221 304.132 342.456C293.886 347.692 284.575 348.954 276.745 345.803C268.916 342.652 263.075 335.292 259.312 324.418C255.55 313.547 253.913 299.285 254.416 282.587C255.424 249.197 264.984 206.286 282.891 161.791C300.798 117.297 323.628 79.7263 346.03 54.9474C357.235 42.5549 368.294 33.4036 378.538 28.1692C388.784 22.9333 398.095 21.6711 405.925 24.8222C413.755 27.9733 419.596 35.3333 423.359 46.2074C427.121 57.0784 428.758 71.3396 428.254 88.0386C427.247 121.428 417.687 164.339 399.78 208.834Z" stroke="white" stroke-width="2"/>
<path d="M432.386 100.209C430.53 96.8157 429.191 92.9551 428.368 88.6268C427.544 84.2985 427.356 79.7214 427.827 74.8978C427.356 79.7214 426.31 84.1779 424.664 88.2651C423.019 92.3524 420.958 95.881 418.481 98.8509C416.005 101.821 413.245 104.073 410.204 105.606C407.162 107.139 403.997 107.763 400.713 107.442C403.997 107.763 406.985 108.952 409.672 111.045C412.36 113.138 414.632 115.881 416.487 119.274C418.342 122.667 419.682 126.528 420.505 130.856C421.329 135.184 421.493 139.759 421.022 144.583C421.493 139.759 422.563 135.305 424.208 131.218C425.854 127.13 427.915 123.602 430.391 120.632C432.868 117.662 435.627 115.41 438.669 113.877C441.711 112.343 444.872 111.754 448.156 112.075C444.872 111.754 441.888 110.53 439.2 108.438C436.513 106.345 434.241 103.602 432.386 100.209ZM448.357 56.5612C447.673 54.1804 447.451 51.6376 447.722 48.8667C447.451 51.6376 446.741 54.0894 445.609 56.2928C444.48 58.4619 443.069 60.1545 441.401 61.3385C439.711 62.5203 437.944 63.0385 436.057 62.8542C437.944 63.0385 439.577 63.8887 441.007 65.3752C442.414 66.8595 443.471 68.7932 444.156 71.1739C444.844 73.5204 445.066 76.0632 444.795 78.8342C445.066 76.0632 445.775 73.6114 446.904 71.4423C448.036 69.239 449.448 67.5464 451.139 66.3646C452.806 65.1805 454.573 64.6624 456.46 64.8466C454.573 64.6624 452.94 63.8122 451.533 62.3279C450.103 60.8413 449.045 58.9077 448.357 56.5612ZM450.763 65.1537C448.942 66.461 447.424 68.2813 446.182 70.6466C445.923 71.1392 445.66 71.6661 445.44 72.2318C445.334 71.6343 445.201 71.0687 445.041 70.5351C444.28 67.9742 443.12 65.8924 441.587 64.2576C441.267 63.9156 440.925 63.5713 440.552 63.2932C440.971 63.0924 441.374 62.8209 441.754 62.5471C443.574 61.2399 445.115 59.4219 446.357 57.0566C446.617 56.5639 446.857 56.0347 447.077 55.4691C447.183 56.0666 447.339 56.6344 447.499 57.168C448.26 59.7289 449.397 61.8085 450.93 63.4432C451.273 63.7875 451.615 64.1318 451.964 64.4077C451.568 64.6107 451.166 64.8822 450.763 65.1537ZM402.36 83.1169C400.953 81.6327 399.896 79.699 399.211 77.3183C398.523 74.9717 398.301 72.429 398.572 69.658C398.301 72.429 397.592 74.8808 396.463 77.0499C395.331 79.2532 393.919 80.9458 392.229 82.1276C390.561 83.3116 388.794 83.8298 386.908 83.6456C388.794 83.8298 390.427 84.68 391.834 86.1643C393.264 87.6509 394.322 89.5845 395.01 91.931C395.694 94.3118 395.916 96.8546 395.646 99.6255C395.916 96.8546 396.626 94.4027 397.758 92.1994C398.887 90.0303 400.298 88.3377 401.966 87.1537C403.656 85.9719 405.423 85.4537 407.31 85.6379C405.423 85.4537 403.79 84.6035 402.36 83.1169ZM401.617 85.9108C399.796 87.2181 398.252 89.0703 397.01 91.4356C396.75 91.9283 396.51 92.4574 396.29 93.0231C396.184 92.4256 396.028 91.8578 395.868 91.3242C395.107 88.7633 393.974 86.6495 392.44 85.0147C392.098 84.6704 391.752 84.3604 391.403 84.0845C391.799 83.8815 392.201 83.61 392.604 83.3385C394.425 82.0312 395.943 80.2109 397.185 77.8456C397.448 77.3187 397.711 76.7919 397.927 76.2604C398.037 76.8237 398.17 77.3892 398.326 77.9571C399.087 80.518 400.247 82.5998 401.78 84.2346C402.1 84.5766 402.442 84.9209 402.815 85.199C402.396 85.3998 401.996 85.6371 401.617 85.9108Z" fill="white"/>
<path d="M253.582 251.541C254.495 253.724 255.082 256.176 255.342 258.896C255.603 261.616 255.478 264.464 254.954 267.438C255.478 264.464 256.32 261.742 257.494 259.275C258.668 256.807 260.057 254.704 261.661 252.964C263.264 251.225 264.997 249.942 266.858 249.118C268.719 248.293 270.606 248.039 272.514 248.375C270.606 248.039 268.916 247.176 267.449 245.765C265.981 244.354 264.791 242.557 263.878 240.374C262.965 238.191 262.378 235.74 262.118 233.02C261.858 230.3 261.996 227.454 262.52 224.48C261.996 227.454 261.14 230.173 259.966 232.641C258.792 235.108 257.403 237.212 255.8 238.952C254.196 240.691 252.463 241.973 250.602 242.798C248.741 243.622 246.858 243.856 244.95 243.52C246.858 243.856 248.544 244.74 250.012 246.151C251.479 247.562 252.669 249.359 253.582 251.541ZM241.982 277.959C242.261 279.465 242.26 281.052 241.959 282.761C242.26 281.052 242.802 279.561 243.579 278.241C244.351 276.942 245.266 275.95 246.303 275.285C247.355 274.622 248.417 274.375 249.513 274.568C248.417 274.375 247.503 273.779 246.742 272.797C245.993 271.817 245.473 270.573 245.194 269.067C244.912 267.582 244.912 265.995 245.213 264.287C244.912 265.995 244.37 267.487 243.598 268.786C242.821 270.106 241.907 271.097 240.856 271.76C239.818 272.425 238.756 272.673 237.66 272.48C238.756 272.673 239.669 273.269 240.417 274.249C241.179 275.231 241.699 276.475 241.982 277.959ZM241.013 272.527C242.147 271.792 243.13 270.726 243.98 269.31C244.157 269.015 244.338 268.699 244.496 268.357C244.528 268.732 244.577 269.089 244.643 269.427C244.957 271.047 245.53 272.388 246.345 273.466C246.514 273.692 246.697 273.92 246.901 274.108C246.645 274.215 246.395 274.366 246.159 274.521C245.025 275.256 244.029 276.32 243.179 277.735C243.002 278.03 242.834 278.349 242.676 278.69C242.645 278.315 242.582 277.956 242.516 277.619C242.202 275.998 241.642 274.66 240.828 273.582C240.645 273.354 240.462 273.126 240.271 272.94C240.514 272.83 240.764 272.679 241.013 272.527ZM270.3 263.4C271.048 264.38 271.568 265.624 271.847 267.13C272.13 268.615 272.129 270.202 271.828 271.91C272.129 270.202 272.671 268.71 273.444 267.411C274.22 266.091 275.134 265.1 276.186 264.437C277.224 263.772 278.286 263.524 279.382 263.717C278.286 263.524 277.372 262.928 276.624 261.948C275.862 260.966 275.342 259.722 275.059 258.238C274.781 256.732 274.781 255.145 275.082 253.436C274.781 255.145 274.239 256.636 273.463 257.956C272.69 259.255 271.776 260.247 270.738 260.912C269.687 261.575 268.624 261.822 267.528 261.629C268.624 261.822 269.538 262.418 270.3 263.4ZM270.879 261.697C272.013 260.962 273.013 259.877 273.862 258.461C274.04 258.167 274.207 257.848 274.365 257.506C274.397 257.882 274.459 258.24 274.525 258.578C274.84 260.199 275.395 261.558 276.21 262.636C276.393 262.864 276.58 263.071 276.77 263.257C276.528 263.366 276.278 263.518 276.028 263.67C274.894 264.405 273.911 265.471 273.062 266.887C272.881 267.203 272.699 267.519 272.545 267.84C272.51 267.486 272.461 267.129 272.399 266.77C272.084 265.149 271.511 263.809 270.697 262.731C270.527 262.505 270.344 262.277 270.14 262.089C270.396 261.982 270.642 261.852 270.879 261.697Z" fill="white"/>
</svg>
